<svg width="855" height="607" viewBox="0 0 855 607" fill="none" xmlns="http://www.w3.org/2000/svg">
<path d="M41 44H809V564H41V44Z" fill="#02EEEE" fill-opacity="0.4"/>
<path d="M42.9639 111.98L39.5318 110.779L112.406 40.8198L113.858 43.4737L42.9639 111.98Z" fill="#A00000" stroke="#A00000" stroke-width="2"/>
<path d="M37.9528 39.8094L112.637 39.1921L37.9529 111.222L37.9528 39.8094Z" fill="#FF0000"/>
<path d="M742.88 43.8264L744.095 40.399L813.772 113.542L811.113 114.984L742.88 43.8264Z" fill="#A00000" stroke="#A00000" stroke-width="2"/>
<path d="M815.069 39.0932L815.399 113.779L743.658 38.8183L815.069 39.0932Z" fill="#FF0000"/>
<path d="M44.9639 494.882L41.5318 496.083L114.406 566.042L115.858 563.388L44.9639 494.882Z" fill="#A00000" stroke="#A00000" stroke-width="2"/>
<path d="M39.9528 567.052L114.637 567.67L39.9529 495.64L39.9528 567.052Z" fill="#FF0000"/>
<path d="M740.88 563.165L742.095 566.592L811.772 493.449L809.113 492.007L740.88 563.165Z" fill="#A00000" stroke="#A00000" stroke-width="2"/>
<path d="M813.069 567.898L813.399 493.212L741.658 568.173L813.069 567.898Z" fill="#FF0000"/>
</svg>
