<svg width="1221" height="607" viewBox="0 0 1221 607" fill="none" xmlns="http://www.w3.org/2000/svg">
<path d="M43.5 43.5H1176.5V563.5H43.5V43.5Z" fill="#02EEEE" fill-opacity="0.4"/>
<path d="M112.406 40.8198L113.858 43.4737L42.9639 111.98L39.5318 110.779L112.406 40.8198Z" fill="#A00000" stroke="#A00000" stroke-width="2"/>
<path d="M37.9529 39.8094L112.637 39.1921L37.9529 111.222L37.9529 39.8094Z" fill="#FF0000"/>
<path d="M1179.77 113.542L1177.11 114.984L1108.88 43.8264L1110.09 40.399L1179.77 113.542Z" fill="#A00000" stroke="#A00000" stroke-width="2"/>
<path d="M1181.07 39.0932L1181.4 113.779L1109.66 38.8183L1181.07 39.0932Z" fill="#FF0000"/>
<path d="M114.406 566.042L115.858 563.388L44.9639 494.882L41.5318 496.083L114.406 566.042Z" fill="#A00000" stroke="#A00000" stroke-width="2"/>
<path d="M39.9529 567.052L114.637 567.67L39.9529 495.64L39.9529 567.052Z" fill="#FF0000"/>
<path d="M1177.77 493.449L1175.11 492.007L1106.88 563.165L1108.09 566.592L1177.77 493.449Z" fill="#A00000" stroke="#A00000" stroke-width="2"/>
<path d="M1179.07 567.898L1179.4 493.212L1107.66 568.173L1179.07 567.898Z" fill="#FF0000"/>
</svg>
