<svg width="424" height="788" viewBox="0 0 424 788" fill="none" xmlns="http://www.w3.org/2000/svg">
<path d="M7 0H424V575C424 702.002 317.337 794.445 194.5 787L117 763.5L0 2.5L7 0Z" fill="#A00000"/>
<path d="M0 2.17401H420V584.174H0V2.17401Z" fill="#FF0000"/>
<path d="M420 577C420 692.98 325.98 787 210 787C94.0202 787 0 692.98 0 577C0 461.02 94.0202 367 210 367C325.98 367 420 461.02 420 577Z" fill="#FF0000"/>
<path d="M412 577C416.418 577 420.016 580.583 419.848 584.998C418.901 609.846 413.547 634.351 404.015 657.364C393.461 682.842 377.993 705.992 358.492 725.492C338.992 744.993 315.842 760.461 290.364 771.015C264.885 781.568 237.578 787 210 787C182.422 787 155.115 781.568 129.636 771.015C104.158 760.461 81.0079 744.993 61.5076 725.492C42.0073 705.992 26.5388 682.842 15.9853 657.364C6.45321 634.351 1.09939 609.846 0.152358 584.998C-0.0159128 580.583 3.58172 577 8 577L76 577C80.4183 577 83.9735 580.585 84.2539 584.995C85.132 598.807 88.281 612.398 93.5912 625.218C99.9233 640.505 109.204 654.395 120.905 666.095C132.605 677.796 146.495 687.077 161.782 693.409C177.069 699.741 193.453 703 210 703C226.547 703 242.931 699.741 258.218 693.409C273.505 687.077 287.395 677.796 299.095 666.095C310.796 654.395 320.077 640.505 326.409 625.218C331.719 612.398 334.868 598.807 335.746 584.995C336.026 580.585 339.582 577 344 577H412Z" fill="#3C3C3C"/>
<rect x="24" y="61" width="372" height="478" rx="8" fill="#3C3C3C"/>
<rect x="24" y="61" width="372" height="499" rx="8" fill="white"/>
<ellipse cx="210" cy="577" rx="117" ry="114" fill="white"/>
</svg>
